<svg width="50" height="50" viewBox="0 0 50 50" fill="none" xmlns="http://www.w3.org/2000/svg">
<g clip-path="url(#clip0_14_2)">
<path d="M25 50C38.8071 50 50 38.8071 50 25C50 11.1929 38.8071 0 25 0C11.1929 0 0 11.1929 0 25C0 38.8071 11.1929 50 25 50Z" fill="#10C774"/>
<path d="M25 45.8334C13.5126 45.8334 4.16666 36.4875 4.16666 25C4.16666 13.5126 13.5126 4.16672 25 4.16672C36.4879 4.16672 45.8333 13.5126 45.8333 25C45.8333 36.4875 36.4879 45.8334 25 45.8334Z" fill="#1CBB73"/>
<path opacity="0.3" d="M25.7812 25.421C28.8361 25.421 31.3125 22.9445 31.3125 19.8897C31.3125 16.8349 28.8361 14.3584 25.7812 14.3584C22.7264 14.3584 20.25 16.8349 20.25 19.8897C20.25 22.9445 22.7264 25.421 25.7812 25.421Z" fill="black"/>
<path opacity="0.3" d="M32.3617 26.2771C32.2744 26.2178 32.099 26.1038 32.099 26.1038C30.685 28.0668 28.3799 29.3472 25.7812 29.3472C23.1823 29.3472 20.877 28.0665 19.4632 26.1031C19.4632 26.1031 19.3157 26.1997 19.2424 26.2491C16.1178 28.3538 14.0625 31.9246 14.0625 35.9753V37.2041H37.5V35.9753C37.5 31.9425 35.463 28.3855 32.3617 26.2771Z" fill="black"/>
<path d="M25 24.6397C28.0548 24.6397 30.5313 22.1633 30.5313 19.1084C30.5313 16.0536 28.0548 13.5772 25 13.5772C21.9452 13.5772 19.4687 16.0536 19.4687 19.1084C19.4687 22.1633 21.9452 24.6397 25 24.6397Z" fill="white"/>
<path d="M31.5804 25.4958C31.4932 25.4366 31.3177 25.3226 31.3177 25.3226C29.9038 27.2855 27.5987 28.5659 25 28.5659C22.4011 28.5659 20.0958 27.2853 18.6819 25.3219C18.6819 25.3219 18.5344 25.4184 18.4611 25.4678C15.3366 27.5725 13.2812 31.1433 13.2812 35.1941V36.4229H36.7188V35.1941C36.7188 31.1612 34.6817 27.6043 31.5804 25.4958Z" fill="white"/>
</g>
<defs>
<clipPath id="clip0_14_2">
<rect width="50" height="50" fill="white"/>
</clipPath>
</defs>
</svg>
