<svg width="48" height="48" viewBox="0 0 48 48" fill="none" xmlns="http://www.w3.org/2000/svg">
<path d="M23.7198 47.4397C36.8199 47.4397 47.4397 36.8199 47.4397 23.7198C47.4397 10.6197 36.8199 0 23.7198 0C10.6197 0 0 10.6197 0 23.7198C0 36.8199 10.6197 47.4397 23.7198 47.4397Z" fill="#10C774"/>
<path fill-rule="evenodd" clip-rule="evenodd" d="M27.967 21.6298C28.7113 21.6298 29.4113 21.34 29.9374 20.8136C30.4639 20.2869 30.7537 19.5874 30.7537 18.8431C30.7537 18.0987 30.4639 17.3987 29.9372 16.8723C29.4111 16.3461 28.7113 16.0563 27.967 16.0563H20.3034V21.6298L27.967 21.6298ZM28.1983 35.5598V37.6537H24.0181V35.5636H22.1608V37.6537H17.9806V35.5636H14.7298V31.3835H16.1232V16.0564H14.7298V11.8762H17.9806V9.78613H22.1608V11.8762H24.0181V9.78613H28.1983V11.8801C29.9725 11.9376 31.6322 12.6557 32.8931 13.9167C34.2093 15.2329 34.9338 16.9824 34.9338 18.8431C34.9338 20.6807 34.2269 22.4097 32.9422 23.7199C34.2273 25.0303 34.9338 26.7593 34.9338 28.5968C34.9338 30.4575 34.2091 32.207 32.8934 33.5229C31.6322 34.7841 29.9725 35.5022 28.1983 35.5598ZM20.3034 31.3835H27.967C28.7113 31.3835 29.4113 31.0936 29.9374 30.5673C30.4639 30.0405 30.7537 29.341 30.7537 28.5967C30.7537 27.8524 30.4639 27.1524 29.9372 26.6259C29.4111 26.0998 28.7113 25.8099 27.967 25.8099H20.3034L20.3034 31.3835Z" fill="#FFFFFE"/>
</svg>
