<svg width="116" height="116" viewBox="0 0 116 116" fill="none" xmlns="http://www.w3.org/2000/svg">
<path fill-rule="evenodd" clip-rule="evenodd" d="M53.0521 19.7665C42.5734 19.7676 32.164 24.0828 24.76 31.4919C17.3559 38.9009 13.045 49.3121 13.045 59.7892C13.045 70.2663 17.3559 80.6774 24.76 88.0865C32.164 95.4956 42.5734 99.8113 53.0521 99.8119C63.5308 99.813 73.9463 95.5008 81.3598 88.0917C88.7733 80.6826 93.0904 70.2674 93.0904 59.7892H82.4177C82.4177 67.4732 79.2504 75.1124 73.8139 80.5458C68.3773 85.9791 60.7365 89.1397 53.0521 89.1392C45.3677 89.1392 37.7356 85.9739 32.306 80.5406C26.8763 75.1072 23.7177 67.4724 23.7177 59.7892C23.7177 52.106 26.8763 44.4712 32.306 39.0378C37.7356 33.6045 45.3677 30.4396 53.0521 30.4392C53.0565 30.4392 53.061 30.4392 53.0699 30.4392V19.7665C53.0655 19.7665 53.0609 19.7665 53.0521 19.7665Z" fill="#10C774"/>
<path d="M47.4775 48.0472L39.9308 55.5939L56.3978 72.061L63.9445 64.5142L47.4775 48.0472Z" fill="#ECF0F1"/>
<path fill-rule="evenodd" clip-rule="evenodd" d="M94.5968 19.5399L49.2377 64.899L56.7836 72.445L102.143 27.0858L94.5968 19.5399Z" fill="#ECF0F1"/>
</svg>
