<svg width="48" height="48" viewBox="0 0 48 48" fill="none" xmlns="http://www.w3.org/2000/svg">
<path d="M24 48C37.2548 48 48 37.2548 48 24C48 10.7452 37.2548 0 24 0C10.7452 0 0 10.7452 0 24C0 37.2548 10.7452 48 24 48Z" fill="#DB7314"/>
<path d="M20.3531 16.1063C20.3531 16.8 20.3531 19.8938 20.3531 19.8938H17.5781V24.525H20.3531V37.2188H26.0531V24.5156H29.8781C29.8781 24.5156 30.2344 22.2938 30.4125 19.8656C29.9156 19.8656 26.0813 19.8656 26.0813 19.8656C26.0813 19.8656 26.0813 17.175 26.0813 16.6969C26.0813 16.2281 26.7 15.5906 27.3187 15.5906C27.9281 15.5906 29.2219 15.5906 30.4219 15.5906C30.4219 14.9625 30.4219 12.7781 30.4219 10.7719C28.8187 10.7719 27 10.7719 26.2031 10.7719C20.2125 10.7813 20.3531 15.4125 20.3531 16.1063Z" fill="white"/>
</svg>
