<svg width="51" height="50" viewBox="0 0 51 50" fill="none" xmlns="http://www.w3.org/2000/svg">
<mask id="mask0_6_14" style="mask-type:luminance" maskUnits="userSpaceOnUse" x="3" y="2" width="45" height="46">
<path d="M3.73464 25.1021C3.73464 37.3193 13.5982 47.2231 25.7656 47.2231C37.933 47.2231 47.7965 37.3193 47.7965 25.1021C47.7965 12.8849 37.933 2.98109 25.7656 2.98109C13.5982 2.98109 3.73464 12.8849 3.73464 25.1021Z" fill="white"/>
</mask>
<g mask="url(#mask0_6_14)">
<path d="M3.73464 25.1021C3.73464 37.3193 13.5982 47.2231 25.7656 47.2231C37.933 47.2231 47.7965 37.3193 47.7965 25.1021C47.7965 12.8849 37.933 2.98109 25.7656 2.98109C13.5982 2.98109 3.73464 12.8849 3.73464 25.1021Z" fill="#DB7314"/>
</g>
<mask id="mask1_6_14" style="mask-type:luminance" maskUnits="userSpaceOnUse" x="0" y="0" width="51" height="50">
<path d="M0.765503 9.40057e-07H50.6128V49.8473H0.765503V9.40057e-07Z" fill="white"/>
</mask>
<g mask="url(#mask1_6_14)">
<path d="M18.6475 26.7188L21.2614 33.9831C21.2614 33.9831 21.5881 34.6625 21.9382 34.6625C22.2882 34.6625 27.4926 29.226 27.4926 29.226L33.2804 18.0014L18.7409 24.844L18.6475 26.7188Z" fill="#C8DAEA"/>
</g>
<mask id="mask2_6_14" style="mask-type:luminance" maskUnits="userSpaceOnUse" x="0" y="0" width="51" height="50">
<path d="M0.765503 9.40057e-07H50.6128V49.8473H0.765503V9.40057e-07Z" fill="white"/>
</mask>
<g mask="url(#mask2_6_14)">
<path d="M22.1131 28.5818L21.6113 33.9362C21.6113 33.9362 21.4012 35.5766 23.0349 33.9362C24.6685 32.2959 26.2322 31.0305 26.2322 31.0305" fill="#A9C6D8"/>
</g>
<mask id="mask3_6_14" style="mask-type:luminance" maskUnits="userSpaceOnUse" x="0" y="0" width="51" height="50">
<path d="M0.765503 9.40057e-07H50.6128V49.8473H0.765503V9.40057e-07Z" fill="white"/>
</mask>
<g mask="url(#mask3_6_14)">
<path d="M18.6946 26.9783L13.3185 25.2193C13.3185 25.2193 12.6768 24.9578 12.8829 24.364C12.9255 24.2416 13.0112 24.1376 13.2679 23.9578C14.4594 23.1241 35.3182 15.5961 35.3182 15.5961C35.3182 15.5961 35.9073 15.397 36.2555 15.5293C36.4146 15.5899 36.5161 15.6583 36.6016 15.908C36.6328 15.9989 36.6507 16.1922 36.6483 16.3845C36.6464 16.5233 36.6296 16.6517 36.6173 16.8532C36.4904 18.9116 32.6891 34.2722 32.6891 34.2722C32.6891 34.2722 32.4617 35.1711 31.6467 35.2017C31.3495 35.2129 30.9888 35.1524 30.5575 34.7799C28.9584 33.3986 23.4307 29.6686 22.2095 28.8484C22.1404 28.8023 22.121 28.7421 22.1092 28.6835C22.092 28.5972 22.1839 28.4896 22.1839 28.4896C22.1839 28.4896 31.8088 19.899 32.0649 18.9976C32.0847 18.9277 32.0102 18.8932 31.9092 18.9234C31.27 19.1596 20.188 26.1858 18.9651 26.962C18.8936 27.0073 18.6931 26.9781 18.6931 26.9781" fill="white"/>
</g>
</svg>
