<svg width="48" height="48" viewBox="0 0 48 48" fill="none" xmlns="http://www.w3.org/2000/svg">
<path d="M24 48C37.2548 48 48 37.2548 48 24C48 10.7452 37.2548 0 24 0C10.7452 0 0 10.7452 0 24C0 37.2548 10.7452 48 24 48Z" fill="#DB7314"/>
<path d="M31.3498 46.8537L14.9421 30.445L13.1718 24L12.8065 16.4013L19.4335 23.0283L25.7322 16.2175L30.0298 20.5142L37.6877 16.2206L47.8805 26.4095C47.8805 26.4095 47.6533 28.3222 47.4161 29.2845C47.1789 30.2467 46.8845 31.3329 46.6174 32.0475C46.3502 32.7621 46.0644 33.4906 45.8255 33.9958C45.5866 34.5008 45.3596 34.9905 45.0509 35.5354C44.7423 36.0802 44.5804 36.3774 44.283 36.835C43.9856 37.2926 43.6594 37.8096 43.2039 38.3971C42.7483 38.9846 42.6657 39.1406 42.0605 39.806C41.4553 40.4712 41.1807 40.8089 40.4941 41.4339C39.8075 42.059 39.4691 42.3904 38.7805 42.9098C38.092 43.4292 37.2203 44.0702 36.4805 44.5036C35.7406 44.9371 35.1545 45.2786 34.5193 45.5776C33.8841 45.8766 33.2497 46.1698 32.676 46.3837C32.1023 46.5976 31.9392 46.6728 31.3498 46.8537Z" fill="url(#paint0_linear_5_7)"/>
<path d="M38.8537 33.0953C38.8444 32.9404 38.8101 32.7552 38.7485 32.6122C38.6162 32.3049 38.4299 31.9861 38.2297 31.7184C37.1863 30.3239 36.4941 29.6116 35.9724 29.0497C35.4507 28.4879 33.3037 26.4613 33.1632 26.06C33.0228 25.6587 32.9776 25.4806 33.3764 24.9389C33.7752 24.397 34.6481 23.0301 35.3303 22.0469C35.7582 21.4303 36.1469 20.7855 36.5309 20.1411C36.9837 19.3812 37.4095 18.6029 37.7724 17.7959C37.9347 17.4351 38.082 17.1064 37.9815 16.702C37.9141 16.4311 37.7618 16.1932 37.4781 16.1263C37.3232 16.0898 37.1542 16.0861 36.9957 16.0861C36.4038 16.0861 34.8587 16.0861 34.8587 16.0861C34.5795 16.0861 34.3001 16.0821 34.0208 16.0826C33.7344 16.0831 33.4457 16.0808 33.1602 16.1053C32.754 16.1401 32.505 16.4534 32.3007 16.7692C32.0507 17.1557 31.8232 17.5578 31.5807 17.9491C31.4149 18.2166 31.2526 18.4861 31.0933 18.7574C30.8443 19.1811 30.5878 19.6004 30.3313 20.0196C30.2249 20.1935 30.118 20.3672 30.0131 20.5421C29.7121 21.0436 27.1036 24.4748 26.5819 24.6153C26.0603 24.7559 25.8796 24.7157 25.8796 23.6522C25.8796 22.5887 25.8796 16.5491 25.8796 16.5491C25.8796 16.5491 25.8396 16.0834 25.3981 16.0834C24.9567 16.0834 22.9091 16.0834 22.9091 16.0834H18.6862C18.6862 16.0834 17.693 16.0875 18.0441 16.9805C18.3953 17.8734 19.4337 18.1443 19.4337 19.6341C19.4337 21.1239 19.4337 25.4731 19.4337 25.4731C19.4337 25.4731 19.2581 26.7824 18.1244 25.6988C17.231 24.845 16.4949 23.8355 15.8446 22.7887C15.1683 21.7005 14.6236 20.57 14.1383 19.3855C13.9995 19.0468 13.8621 18.7074 13.7195 18.3703C13.5707 18.0183 13.4233 17.6657 13.2806 17.3112C13.1149 16.8995 12.9376 16.3613 12.4908 16.1717C12.2662 16.0764 12.0178 16.0811 11.7783 16.0812C10.8904 16.0814 10.0025 16.0839 9.11457 16.0822C8.85404 16.0817 8.59351 16.0814 8.33298 16.0821C7.71783 16.0836 6.95274 16.0654 6.80682 16.8339C6.72273 17.2765 6.88988 17.749 7.0298 18.1636C7.09327 18.352 7.17151 18.5331 7.24248 18.7184C7.60341 19.6606 8.0483 20.5691 8.50749 21.4664C9.5986 23.5982 10.7222 25.6698 12.2288 27.5436C13.7512 29.4371 15.5487 31.2722 17.6661 32.4971C18.255 32.8378 18.874 33.1252 19.5189 33.3437C22.007 34.1865 24.7358 34.1062 25.5786 33.5444C26.4213 32.9826 25.4181 29.2905 26.1805 28.8491C26.9431 28.4076 28.3075 29.3708 29.3107 30.2537C30.314 31.1365 31.0764 31.899 31.6383 32.501C31.9902 32.8779 32.2379 33.3278 32.6965 33.5967C33.4553 34.0414 34.4662 33.9921 35.3125 33.9944C35.7843 33.9958 36.2563 33.9974 36.7281 33.9915C37.047 33.9876 37.366 33.9979 37.6846 33.9824C38.2082 33.9571 38.893 33.7504 38.8537 33.0953Z" fill="white"/>
<defs>
<linearGradient id="paint0_linear_5_7" x1="16.0957" y1="13.1121" x2="42.4684" y2="39.4848" gradientUnits="userSpaceOnUse">
<stop/>
<stop offset="0.4833" stop-color="#090909" stop-opacity="0.5167"/>
<stop offset="1" stop-color="#181818" stop-opacity="0"/>
</linearGradient>
</defs>
</svg>
