<svg width="116" height="116" viewBox="0 0 116 116" fill="none" xmlns="http://www.w3.org/2000/svg">
<path d="M58.2265 104.55C32.3984 104.55 11.3893 83.5381 11.3893 57.7123C11.3893 31.8864 32.3984 10.875 58.2265 10.875C84.0547 10.875 105.064 31.8864 105.064 57.7123C105.064 83.5381 84.0547 104.55 58.2265 104.55ZM58.2265 17.6719C36.148 17.6719 18.1862 35.6337 18.1862 57.7123C18.1862 79.7908 36.148 97.7527 58.2265 97.7527C80.3051 97.7527 98.2669 79.7908 98.2669 57.7123C98.2669 35.6337 80.3051 17.6719 58.2265 17.6719Z" fill="#EE1111"/>
<path d="M77.6928 81.1094C77.2464 81.1096 76.8044 81.0218 76.392 80.8512C75.9795 80.6805 75.6047 80.4303 75.289 80.1148L36.3565 41.18C36.0319 40.8665 35.773 40.4915 35.5949 40.0769C35.4168 39.6623 35.323 39.2163 35.3191 38.7651C35.3152 38.3138 35.4012 37.8663 35.572 37.4487C35.7429 37.031 35.9953 36.6516 36.3143 36.3325C36.6334 36.0134 37.0129 35.761 37.4305 35.5902C37.8482 35.4193 38.2957 35.3333 38.7469 35.3372C39.1982 35.3411 39.6441 35.4349 40.0587 35.613C40.4734 35.7911 40.8484 36.05 41.1619 36.3746L80.0966 75.3094C80.5714 75.7848 80.8947 76.3903 81.0255 77.0493C81.1563 77.7084 81.0888 78.3914 80.8316 79.0121C80.5743 79.6328 80.1388 80.1633 79.5802 80.5366C79.0215 80.9099 78.3647 81.1092 77.6928 81.1094Z" fill="#EE1111"/>
<path d="M77.0571 38.142L77.0568 38.1423L38.1253 77.076C38.1251 77.0763 38.1249 77.0765 38.1246 77.0767C37.9995 77.2023 37.9143 77.362 37.8798 77.5359C37.8452 77.71 37.863 77.8906 37.9309 78.0546C37.9989 78.2187 38.1139 78.359 38.2615 78.4577C38.4088 78.5562 38.582 78.609 38.7592 78.6094L77.0571 38.142ZM77.0571 38.142C77.2257 37.9734 77.4542 37.8786 77.6926 37.8786M77.0571 38.142L77.6926 37.8786M77.6926 37.8786C77.9309 37.8785 78.1596 37.9731 78.3281 38.1417M77.6926 37.8786L78.3281 38.1417M78.3281 38.1417C78.4967 38.3102 78.5915 38.5387 78.5915 38.7771M78.3281 38.1417L78.5915 38.7771M78.5915 38.7771C78.5916 39.0152 78.4971 39.2437 78.3289 39.4122M78.5915 38.7771L78.3289 39.4122M78.3289 39.4122C78.3287 39.4124 78.3286 39.4125 78.3284 39.4126M78.3289 39.4122L78.3284 39.4126M78.3284 39.4126L39.3947 78.3464L78.3284 39.4126ZM39.1031 78.5411C39.2118 78.4961 39.3107 78.4301 39.3941 78.347L39.1031 78.5411ZM39.1031 78.5411C38.9944 78.5861 38.8779 78.6093 38.7602 78.6094L39.1031 78.5411Z" fill="#EE1111" stroke="#EE1111" stroke-width="5"/>
</svg>
