<svg width="48" height="48" viewBox="0 0 48 48" fill="none" xmlns="http://www.w3.org/2000/svg">
<circle cx="24" cy="24" r="24" fill="#DB7314"/>
<path d="M29.916 10.01C34.098 10.05 37.948 13.64 37.99 18.084C38.004 22.028 38.004 25.972 37.99 29.916C37.95 34.082 34.36 37.948 29.916 37.99C25.972 38.004 22.028 38.004 18.084 37.99C13.9 37.95 10.052 34.36 10.01 29.916C9.996 25.972 9.996 22.028 10.01 18.084C10.048 13.898 13.63 10.052 18.084 10.01C22.028 9.99601 25.972 9.99601 29.916 10.01ZM18.138 11.9C14.892 11.91 11.932 14.724 11.9 18.096C11.888 22.032 11.888 25.968 11.9 29.904C11.93 33.114 14.676 36.068 18.096 36.1C22.032 36.112 25.968 36.112 29.904 36.1C33.122 36.07 36.068 33.324 36.1 29.904C36.112 25.968 36.112 22.032 36.1 18.096C36.07 14.864 33.27 11.932 29.904 11.9C25.982 11.888 22.06 11.9 18.138 11.9Z" fill="white"/>
<path d="M24.048 17C27.284 17.03 30.3 19.526 30.892 22.724C31.314 25.004 30.518 27.476 28.838 29.08C26.968 30.86 24.074 31.496 21.594 30.588C18.822 29.574 16.872 26.652 17.002 23.692C17.16 20.156 20.284 17.012 24 17C24.016 17 24.032 17 24.048 17ZM23.968 18.894C21.658 18.916 19.48 20.668 19 22.944C18.514 25.246 19.838 27.8 22.012 28.718C24.386 29.722 27.452 28.596 28.598 26.252C29.784 23.83 28.666 20.54 26.162 19.37C25.48 19.052 24.722 18.892 23.968 18.894Z" fill="white"/>
<path fill-rule="evenodd" clip-rule="evenodd" d="M33 16.454C33 16.068 32.846 15.698 32.574 15.426C32.302 15.154 31.932 15 31.546 15C31.516 15 31.484 15 31.454 15C31.068 15 30.698 15.154 30.426 15.426C30.154 15.698 30 16.068 30 16.454C30 16.47 30 16.484 30 16.5C30 16.898 30.158 17.28 30.44 17.56C30.72 17.842 31.102 18 31.5 18C32.328 18 33 17.328 33 16.5C33 16.484 33 16.47 33 16.454Z" fill="white"/>
</svg>
