<svg width="49" height="42" viewBox="0 0 49 42" fill="none" xmlns="http://www.w3.org/2000/svg">
<path d="M12.3493 37.9347L1.6929 21.9105C0.32711 19.6553 1.04177 16.7332 3.29692 15.3515L25.769 1.69355C28.0241 0.327755 30.9463 1.04241 32.328 3.28168L38.1723 12.9058L40.0463 16.2567" fill="#10C774"/>
<path d="M43.1114 41H16.7976C14.1664 41 12.0332 38.8668 12.0332 36.2356V21.0159C12.0332 18.3846 14.1664 16.2515 16.7976 16.2515H43.1114C45.7428 16.2515 47.8758 18.3846 47.8758 21.0159V36.2356C47.8758 38.8668 45.7428 41 43.1114 41Z" fill="#F9F9F9"/>
<path d="M47.8788 21.6994H12.0327V26.6752H47.8788V21.6994Z" fill="#383838"/>
<path d="M44.5886 33.1469H40.4197" stroke="#303030" stroke-width="0.5" stroke-miterlimit="10" stroke-linecap="round" stroke-linejoin="round"/>
<path d="M44.5886 34.9335H40.4197" stroke="#303030" stroke-width="0.5" stroke-miterlimit="10" stroke-linecap="round" stroke-linejoin="round"/>
<path d="M44.5886 36.7863H40.4197" stroke="#303030" stroke-width="0.5" stroke-miterlimit="10" stroke-linecap="round" stroke-linejoin="round"/>
<path d="M43.1114 41H16.7976C14.1664 41 12.0332 38.8668 12.0332 36.2356V21.0159C12.0332 18.3846 14.1664 16.2515 16.7976 16.2515H43.1114C45.7428 16.2515 47.8758 18.3846 47.8758 21.0159V36.2356C47.8758 38.8668 45.7428 41 43.1114 41Z" stroke="#303030" stroke-width="0.5" stroke-miterlimit="10" stroke-linecap="round" stroke-linejoin="round"/>
<path d="M47.8788 21.6994H12.0327" stroke="#303030" stroke-width="0.5" stroke-miterlimit="10" stroke-linecap="round" stroke-linejoin="round"/>
<path d="M47.8788 26.6752H12.0327" stroke="#303030" stroke-width="0.5" stroke-miterlimit="10" stroke-linecap="round" stroke-linejoin="round"/>
<path d="M13.5404 39.7134L13.5245 39.6976" stroke="#303030" stroke-width="0.5" stroke-miterlimit="10" stroke-linecap="round" stroke-linejoin="round"/>
<path d="M12.3493 37.9347L1.6929 21.9105C0.32711 19.6553 1.04177 16.7332 3.29692 15.3515L25.769 1.69355C28.0241 0.327755 30.9463 1.04241 32.328 3.28168L38.1723 12.9058L40.0463 16.2567" stroke="#303030" stroke-width="0.5" stroke-miterlimit="10" stroke-linecap="round" stroke-linejoin="round"/>
<path d="M4.6081 22.7406C4.6081 22.7406 1.51029 19.3612 4.37339 17.1532L13.5474 11.5514" stroke="#303030" stroke-width="0.5" stroke-miterlimit="10" stroke-linecap="round" stroke-linejoin="round"/>
<path d="M15.6057 10.3738L16.5629 9.69217" stroke="#303030" stroke-width="0.5" stroke-miterlimit="10" stroke-linecap="round" stroke-linejoin="round"/>
<path d="M37.5274 16.2515L34.9394 12.0753" stroke="#303030" stroke-width="0.5" stroke-miterlimit="10" stroke-linecap="round" stroke-linejoin="round"/>
</svg>
